<svg width="400" height="1200" viewBox="0 0 400 1200" xmlns="http://www.w3.org/2000/svg">
  <defs>
    <linearGradient id="filmGrad" x1="0%" y1="0%" x2="0%" y2="100%">
      <stop offset="0%" style="stop-color:#3D3D3D"/>
      <stop offset="100%" style="stop-color:#2a2a2a"/>
    </linearGradient>
  </defs>

  <!-- Main background -->
  <rect width="400" height="1200" fill="url(#filmGrad)"/>

  <!-- Film sprocket holes - left side -->
  <g fill="#1a1a1a">
    <rect x="10" y="20" width="20" height="30" rx="3"/>
    <rect x="10" y="70" width="20" height="30" rx="3"/>
    <rect x="10" y="120" width="20" height="30" rx="3"/>
    <rect x="10" y="170" width="20" height="30" rx="3"/>
    <rect x="10" y="220" width="20" height="30" rx="3"/>
    <rect x="10" y="270" width="20" height="30" rx="3"/>
    <rect x="10" y="320" width="20" height="30" rx="3"/>
    <rect x="10" y="370" width="20" height="30" rx="3"/>
    <rect x="10" y="420" width="20" height="30" rx="3"/>
    <rect x="10" y="470" width="20" height="30" rx="3"/>
    <rect x="10" y="520" width="20" height="30" rx="3"/>
    <rect x="10" y="570" width="20" height="30" rx="3"/>
    <rect x="10" y="620" width="20" height="30" rx="3"/>
    <rect x="10" y="670" width="20" height="30" rx="3"/>
    <rect x="10" y="720" width="20" height="30" rx="3"/>
    <rect x="10" y="770" width="20" height="30" rx="3"/>
    <rect x="10" y="820" width="20" height="30" rx="3"/>
    <rect x="10" y="870" width="20" height="30" rx="3"/>
    <rect x="10" y="920" width="20" height="30" rx="3"/>
    <rect x="10" y="970" width="20" height="30" rx="3"/>
    <rect x="10" y="1020" width="20" height="30" rx="3"/>
    <rect x="10" y="1070" width="20" height="30" rx="3"/>
    <rect x="10" y="1120" width="20" height="30" rx="3"/>
    <rect x="10" y="1150" width="20" height="30" rx="3"/>
  </g>

  <!-- Film sprocket holes - right side -->
  <g fill="#1a1a1a">
    <rect x="370" y="20" width="20" height="30" rx="3"/>
    <rect x="370" y="70" width="20" height="30" rx="3"/>
    <rect x="370" y="120" width="20" height="30" rx="3"/>
    <rect x="370" y="170" width="20" height="30" rx="3"/>
    <rect x="370" y="220" width="20" height="30" rx="3"/>
    <rect x="370" y="270" width="20" height="30" rx="3"/>
    <rect x="370" y="320" width="20" height="30" rx="3"/>
    <rect x="370" y="370" width="20" height="30" rx="3"/>
    <rect x="370" y="420" width="20" height="30" rx="3"/>
    <rect x="370" y="470" width="20" height="30" rx="3"/>
    <rect x="370" y="520" width="20" height="30" rx="3"/>
    <rect x="370" y="570" width="20" height="30" rx="3"/>
    <rect x="370" y="620" width="20" height="30" rx="3"/>
    <rect x="370" y="670" width="20" height="30" rx="3"/>
    <rect x="370" y="720" width="20" height="30" rx="3"/>
    <rect x="370" y="770" width="20" height="30" rx="3"/>
    <rect x="370" y="820" width="20" height="30" rx="3"/>
    <rect x="370" y="870" width="20" height="30" rx="3"/>
    <rect x="370" y="920" width="20" height="30" rx="3"/>
    <rect x="370" y="970" width="20" height="30" rx="3"/>
    <rect x="370" y="1020" width="20" height="30" rx="3"/>
    <rect x="370" y="1070" width="20" height="30" rx="3"/>
    <rect x="370" y="1120" width="20" height="30" rx="3"/>
    <rect x="370" y="1150" width="20" height="30" rx="3"/>
  </g>

  <!-- Photo placeholders -->
  <g fill="none" stroke="#555" stroke-width="1">
    <rect x="50" y="40" width="300" height="225" rx="4"/>
    <rect x="50" y="295" width="300" height="225" rx="4"/>
    <rect x="50" y="550" width="300" height="225" rx="4"/>
    <rect x="50" y="805" width="300" height="225" rx="4"/>
  </g>

  <!-- Bottom branding area -->
  <text x="200" y="1100" font-family="Georgia, serif" font-size="22" fill="#D4A59A" text-anchor="middle" font-style="italic">Photo Booth</text>
  <text x="200" y="1130" font-family="monospace" font-size="11" fill="#888" text-anchor="middle">Memories Captured</text>
</svg>